<svg xmlns="http://www.w3.org/2000/svg" xmlns:xlink="http://www.w3.org/1999/xlink" width="500" zoomAndPan="magnify" viewBox="0 0 375 374.999991" height="500" preserveAspectRatio="xMidYMid meet" version="1.0"><defs><clipPath id="9ada371d95"><path d="M 56.25 108.988281 L 155 108.988281 L 155 265.738281 L 56.25 265.738281 Z M 56.25 108.988281 " clip-rule="nonzero"/></clipPath><clipPath id="7bda62fe80"><path d="M 303 195 L 318.75 195 L 318.75 246 L 303 246 Z M 303 195 " clip-rule="nonzero"/></clipPath><clipPath id="571fd8f0a4"><path d="M 228 253 L 318.75 253 L 318.75 265.738281 L 228 265.738281 Z M 228 253 " clip-rule="nonzero"/></clipPath></defs><rect x="-37.5" width="450" fill="#ffffff" y="-37.499999" height="449.999989" fill-opacity="1"/><rect x="-37.5" width="450" fill="#ffffff" y="-37.499999" height="449.999989" fill-opacity="1"/><g clip-path="url(#9ada371d95)"><path fill="#374ea2" d="M 134.1875 122.628906 L 134.1875 116.5 C 134.1875 112.351562 129.207031 108.988281 123.066406 108.988281 C 116.925781 108.988281 111.945312 112.351562 111.945312 116.5 L 111.945312 122.558594 L 78.394531 122.558594 C 66.269531 122.558594 56.4375 132.378906 56.4375 144.480469 L 56.4375 236.503906 C 56.4375 252.644531 69.542969 265.734375 85.714844 265.734375 L 125.246094 265.734375 C 141.414062 265.734375 154.527344 252.644531 154.527344 236.503906 L 154.527344 144.480469 C 154.519531 132.921875 145.554688 123.457031 134.1875 122.628906 Z M 88.425781 239.460938 C 88.425781 241.976562 86.382812 244.019531 83.863281 244.019531 L 73.902344 244.019531 C 71.382812 244.019531 69.335938 241.976562 69.335938 239.460938 L 69.335938 235.785156 C 69.335938 233.265625 71.382812 231.226562 73.902344 231.226562 L 83.855469 231.226562 C 86.378906 231.226562 88.421875 233.265625 88.421875 235.785156 L 88.421875 239.460938 Z M 88.425781 218.972656 C 88.425781 221.488281 86.382812 223.527344 83.863281 223.527344 L 73.902344 223.527344 C 71.382812 223.527344 69.335938 221.488281 69.335938 218.972656 L 69.335938 215.296875 C 69.335938 212.777344 71.382812 210.738281 73.902344 210.738281 L 83.855469 210.738281 C 86.378906 210.738281 88.421875 212.777344 88.421875 215.296875 L 88.421875 218.972656 Z M 88.425781 198.484375 C 88.425781 201 86.382812 203.039062 83.863281 203.039062 L 73.902344 203.039062 C 71.382812 203.039062 69.335938 201 69.335938 198.484375 L 69.335938 194.808594 C 69.335938 192.289062 71.382812 190.25 73.902344 190.25 L 83.855469 190.25 C 86.378906 190.25 88.421875 192.289062 88.421875 194.808594 L 88.421875 198.484375 Z M 115.023438 239.460938 C 115.023438 241.976562 112.980469 244.019531 110.457031 244.019531 L 100.503906 244.019531 C 97.984375 244.019531 95.9375 241.976562 95.9375 239.460938 L 95.9375 235.785156 C 95.9375 233.265625 97.984375 231.226562 100.503906 231.226562 L 110.457031 231.226562 C 112.980469 231.226562 115.023438 233.265625 115.023438 235.785156 Z M 115.023438 218.972656 C 115.023438 221.488281 112.980469 223.527344 110.457031 223.527344 L 100.503906 223.527344 C 97.984375 223.527344 95.9375 221.488281 95.9375 218.972656 L 95.9375 215.296875 C 95.9375 212.777344 97.984375 210.738281 100.503906 210.738281 L 110.457031 210.738281 C 112.980469 210.738281 115.023438 212.777344 115.023438 215.296875 Z M 115.023438 198.484375 C 115.023438 201 112.980469 203.039062 110.457031 203.039062 L 100.503906 203.039062 C 97.984375 203.039062 95.9375 201 95.9375 198.484375 L 95.9375 194.808594 C 95.9375 192.289062 97.984375 190.25 100.503906 190.25 L 110.457031 190.25 C 112.980469 190.25 115.023438 192.289062 115.023438 194.808594 Z M 141.625 170.789062 C 141.625 176.203125 137.1875 180.632812 131.765625 180.632812 L 79.199219 180.632812 C 73.777344 180.632812 69.335938 176.203125 69.335938 170.789062 L 69.335938 145.878906 C 69.335938 140.46875 73.769531 136.039062 79.199219 136.039062 L 131.765625 136.039062 C 137.1875 136.039062 141.625 140.46875 141.625 145.878906 Z M 141.625 170.789062 " fill-opacity="1" fill-rule="nonzero"/></g><path fill="#b3c135" d="M 207.105469 220.050781 C 207.050781 219.222656 206.714844 218.566406 206.097656 218.074219 C 205.476562 217.582031 204.796875 217.261719 204.074219 217.105469 C 203.914062 217.105469 203.746094 217.09375 203.570312 217.070312 C 203.390625 217.042969 203.222656 217.027344 203.066406 217.027344 L 202.832031 217.027344 C 202.003906 217.078125 201.226562 217.324219 200.5 217.765625 C 199.777344 218.207031 199.414062 218.683594 199.414062 219.203125 L 199.414062 219.316406 C 199.414062 219.34375 199.441406 219.382812 199.492188 219.433594 L 199.492188 219.589844 C 199.648438 220.15625 200.207031 220.640625 201.164062 221.027344 C 202.121094 221.414062 203.300781 221.792969 204.699219 222.15625 C 205.582031 222.414062 206.539062 222.660156 207.578125 222.890625 C 208.613281 223.125 209.648438 223.394531 210.6875 223.707031 C 213.277344 224.429688 215.6875 225.425781 217.914062 226.691406 C 220.144531 227.960938 221.464844 229.8125 221.882812 232.238281 C 221.933594 232.449219 221.96875 232.679688 221.996094 232.9375 C 222.023438 233.195312 222.035156 233.476562 222.035156 233.792969 L 222.035156 234.957031 C 222.035156 238.527344 220.496094 241.472656 217.40625 243.804688 C 214.320312 246.132812 209.621094 247.296875 203.296875 247.296875 C 198.632812 247.296875 194.398438 246.582031 190.582031 245.160156 C 186.773438 243.738281 184.453125 240.335938 183.625 234.957031 L 197.773438 234.878906 C 198.085938 236.21875 198.632812 237.214844 199.410156 237.859375 C 200.1875 238.507812 201.015625 238.9375 201.898438 239.140625 C 202.054688 239.140625 202.222656 239.152344 202.402344 239.175781 C 202.582031 239.203125 202.75 239.21875 202.90625 239.21875 C 203.996094 239.21875 204.992188 238.9375 205.902344 238.363281 C 206.808594 237.796875 207.261719 237.148438 207.261719 236.425781 C 207.261719 236.273438 207.234375 236.113281 207.183594 235.957031 C 207.128906 235.804688 207.078125 235.648438 207.03125 235.492188 C 206.875 235.179688 206.632812 234.882812 206.289062 234.597656 C 205.953125 234.316406 205.496094 234.070312 204.929688 233.867188 C 204.101562 233.550781 203.234375 233.292969 202.324219 233.089844 C 201.421875 232.882812 200.496094 232.675781 199.566406 232.46875 C 199.152344 232.417969 198.753906 232.355469 198.363281 232.277344 C 197.972656 232.199219 197.570312 232.109375 197.15625 232.003906 C 194.980469 231.535156 192.878906 230.867188 190.855469 229.988281 C 188.835938 229.109375 187.152344 227.636719 185.804688 225.5625 C 185.75 225.511719 185.699219 225.40625 185.652344 225.253906 C 185.597656 225.101562 185.546875 224.917969 185.492188 224.714844 C 185.386719 224.351562 185.289062 223.894531 185.183594 223.355469 C 185.078125 222.8125 185.027344 222.253906 185.027344 221.6875 C 185.027344 221.015625 185.089844 220.292969 185.21875 219.515625 C 185.351562 218.742188 185.570312 217.964844 185.882812 217.1875 C 186.660156 215.066406 188.320312 213.113281 190.855469 211.332031 C 193.394531 209.546875 197.359375 208.65625 202.75 208.65625 C 208.449219 208.65625 212.6875 209.664062 215.460938 211.683594 C 218.234375 213.703125 219.804688 215.925781 220.167969 218.359375 C 220.167969 218.570312 220.179688 218.757812 220.210938 218.941406 C 220.238281 219.117188 220.246094 219.316406 220.246094 219.523438 L 220.246094 220.066406 L 207.105469 220.066406 Z M 207.105469 220.050781 " fill-opacity="1" fill-rule="nonzero"/><path fill="#b3c135" d="M 226.011719 209.652344 L 232 209.652344 L 232 198.789062 L 246.222656 198.789062 L 246.222656 209.652344 L 253.300781 209.652344 L 253.300781 218.421875 L 246.222656 218.421875 L 246.222656 231.617188 C 246.222656 232.804688 246.585938 233.765625 247.3125 234.488281 C 248.035156 235.214844 249.359375 235.574219 251.277344 235.574219 L 251.746094 235.574219 C 251.902344 235.574219 252.058594 235.546875 252.210938 235.496094 L 253.304688 235.496094 L 253.304688 245.664062 C 251.699219 245.769531 250.160156 245.84375 248.683594 245.894531 C 247.207031 245.949219 245.847656 245.972656 244.601562 245.972656 C 240.195312 245.972656 236.90625 245.351562 234.726562 244.113281 C 232.550781 242.871094 231.457031 240.363281 231.457031 236.582031 L 231.457031 218.421875 L 226.015625 218.421875 L 226.015625 209.652344 Z M 226.011719 209.652344 " fill-opacity="1" fill-rule="nonzero"/><path fill="#b3c135" d="M 299.730469 228.976562 C 299.730469 227.839844 299.605469 226.480469 299.34375 224.902344 C 299.085938 223.324219 298.617188 221.683594 297.945312 219.972656 C 296.699219 217.027344 294.550781 214.308594 291.496094 211.824219 C 288.4375 209.339844 283.90625 208.101562 277.890625 208.101562 C 271.148438 208.101562 266.058594 210.078125 262.613281 214.039062 C 259.167969 217.992188 257.390625 222.328125 257.285156 227.039062 L 257.285156 227.734375 C 257.339844 232.496094 259.089844 236.855469 262.535156 240.8125 C 265.980469 244.773438 271.042969 246.75 277.730469 246.75 L 278.429688 246.75 C 285.011719 246.75 289.898438 245.496094 293.085938 242.984375 C 296.273438 240.476562 298.128906 237.589844 298.644531 234.332031 L 284.417969 234.332031 L 284.417969 234.410156 C 284.214844 235.390625 283.617188 236.195312 282.632812 236.816406 C 281.652344 237.4375 280.5625 237.75 279.371094 237.75 C 279.167969 237.75 278.945312 237.734375 278.710938 237.714844 C 278.476562 237.6875 278.257812 237.652344 278.046875 237.597656 C 276.644531 237.34375 275.378906 236.644531 274.234375 235.5 C 273.09375 234.363281 272.449219 232.707031 272.289062 230.535156 L 299.730469 230.535156 Z M 271.742188 222.773438 C 272.363281 220.625 273.230469 219.21875 274.34375 218.53125 C 275.457031 217.84375 276.816406 217.492188 278.425781 217.492188 C 280.085938 217.492188 281.546875 217.84375 282.816406 218.542969 C 284.082031 219.238281 284.980469 220.648438 285.496094 222.773438 Z M 271.742188 222.773438 " fill-opacity="1" fill-rule="nonzero"/><g clip-path="url(#7bda62fe80)"><path fill="#b3c135" d="M 303.714844 195.066406 L 318.5625 195.066406 L 318.5625 245.664062 L 303.714844 245.664062 Z M 303.714844 195.066406 " fill-opacity="1" fill-rule="nonzero"/></g><path fill="#374ea2" d="M 107.019531 167.253906 L 107.019531 170.238281 L 103.675781 170.238281 L 103.675781 167.515625 C 101.628906 167.429688 99.636719 166.871094 98.492188 166.289062 L 99.457031 162.226562 C 100.777344 162.871094 102.59375 163.511719 104.585938 163.511719 C 106.078125 163.511719 107.105469 163.101562 107.105469 162.167969 C 107.105469 161.261719 106.257812 160.707031 104.058594 160.035156 C 100.898438 159.011719 98.640625 157.515625 98.640625 154.566406 C 98.640625 151.902344 100.484375 149.796875 103.824219 149.125 L 103.824219 146.429688 L 107.164062 146.429688 L 107.164062 148.890625 C 109.1875 148.980469 110.5625 149.390625 111.585938 149.824219 L 110.648438 153.714844 C 109.855469 153.394531 108.453125 152.71875 106.222656 152.71875 C 104.496094 152.71875 103.972656 153.332031 103.972656 153.976562 C 103.972656 154.710938 104.96875 155.261719 107.425781 156.144531 C 111.121094 157.34375 112.464844 159.011719 112.464844 161.671875 C 112.464844 164.390625 110.539062 166.640625 107.019531 167.253906 M 107.742188 142.617188 C 99.046875 141.371094 90.984375 147.394531 89.734375 156.074219 C 88.484375 164.753906 94.519531 172.796875 103.214844 174.046875 C 111.910156 175.292969 119.964844 169.269531 121.214844 160.589844 C 122.472656 151.917969 116.4375 143.871094 107.742188 142.617188 " fill-opacity="1" fill-rule="nonzero"/><g clip-path="url(#571fd8f0a4)"><path fill="#374ea2" d="M 314.644531 259.953125 L 316.289062 259.953125 L 316.289062 259.90625 C 316.308594 259.6875 316.320312 259.53125 316.320312 259.441406 C 316.320312 259.015625 316.253906 258.695312 316.109375 258.496094 C 315.96875 258.292969 315.753906 258.1875 315.464844 258.1875 C 315.171875 258.1875 314.957031 258.285156 314.824219 258.484375 C 314.699219 258.683594 314.636719 259.011719 314.636719 259.472656 C 314.636719 259.597656 314.636719 259.691406 314.636719 259.765625 C 314.636719 259.832031 314.640625 259.902344 314.644531 259.953125 M 316.226562 262.441406 L 318.515625 262.441406 L 318.515625 262.660156 C 318.515625 263.683594 318.25 264.453125 317.71875 264.96875 C 317.183594 265.480469 316.382812 265.738281 315.328125 265.738281 C 314.792969 265.738281 314.308594 265.664062 313.878906 265.511719 C 313.449219 265.359375 313.105469 265.152344 312.863281 264.882812 C 312.589844 264.578125 312.398438 264.171875 312.28125 263.660156 C 312.164062 263.152344 312.109375 262.339844 312.109375 261.222656 C 312.109375 259.992188 312.164062 259.132812 312.285156 258.644531 C 312.40625 258.15625 312.605469 257.75 312.894531 257.4375 C 313.175781 257.136719 313.527344 256.914062 313.953125 256.761719 C 314.378906 256.609375 314.871094 256.535156 315.4375 256.535156 C 316.015625 256.535156 316.511719 256.621094 316.925781 256.78125 C 317.34375 256.945312 317.6875 257.191406 317.949219 257.511719 C 318.171875 257.785156 318.328125 258.109375 318.425781 258.484375 C 318.523438 258.863281 318.574219 259.507812 318.574219 260.414062 L 318.574219 261.464844 L 314.59375 261.464844 C 314.585938 261.492188 314.582031 261.523438 314.582031 261.5625 C 314.5625 261.929688 314.550781 262.1875 314.550781 262.335938 C 314.550781 262.949219 314.617188 263.375 314.75 263.613281 C 314.882812 263.855469 315.109375 263.972656 315.421875 263.972656 C 315.703125 263.972656 315.910156 263.878906 316.046875 263.695312 C 316.191406 263.511719 316.257812 263.230469 316.257812 262.859375 C 316.257812 262.785156 316.253906 262.671875 316.238281 262.507812 C 316.230469 262.488281 316.226562 262.460938 316.226562 262.441406 M 311.140625 265.472656 C 310.847656 265.523438 310.585938 265.566406 310.359375 265.597656 C 310.136719 265.628906 309.949219 265.640625 309.796875 265.640625 C 309.3125 265.640625 308.898438 265.558594 308.5625 265.402344 C 308.222656 265.246094 307.96875 265.027344 307.8125 264.726562 C 307.707031 264.527344 307.632812 264.277344 307.589844 263.972656 C 307.542969 263.667969 307.527344 263.199219 307.527344 262.578125 L 307.527344 258.566406 L 306.582031 258.566406 L 306.582031 256.761719 L 307.527344 256.761719 L 307.527344 254.34375 L 309.984375 254.34375 L 309.984375 256.761719 L 311.152344 256.761719 L 311.152344 258.566406 L 309.984375 258.566406 L 309.984375 262.128906 C 309.984375 262.890625 310.039062 263.359375 310.148438 263.535156 C 310.257812 263.714844 310.472656 263.804688 310.789062 263.804688 C 310.847656 263.804688 310.9375 263.796875 311.0625 263.78125 C 311.09375 263.777344 311.121094 263.777344 311.148438 263.777344 L 311.148438 265.472656 Z M 303.355469 265.503906 L 303.214844 264.699219 C 302.90625 265.019531 302.574219 265.261719 302.207031 265.429688 C 301.84375 265.589844 301.445312 265.675781 301.011719 265.675781 C 300.324219 265.675781 299.785156 265.457031 299.378906 265.007812 C 298.980469 264.570312 298.78125 263.972656 298.78125 263.210938 C 298.78125 262.550781 298.949219 262.011719 299.289062 261.582031 C 299.632812 261.148438 300.1875 260.78125 300.960938 260.46875 C 301.148438 260.398438 301.402344 260.304688 301.722656 260.191406 C 302.636719 259.859375 303.09375 259.484375 303.09375 259.066406 C 303.09375 258.8125 303.027344 258.613281 302.894531 258.484375 C 302.761719 258.351562 302.574219 258.285156 302.328125 258.285156 C 302.027344 258.285156 301.808594 258.375 301.664062 258.554688 C 301.523438 258.734375 301.449219 259.011719 301.449219 259.382812 L 301.449219 259.441406 L 299 259.441406 C 299 258.453125 299.273438 257.71875 299.828125 257.238281 C 300.378906 256.753906 301.214844 256.519531 302.332031 256.519531 C 302.835938 256.519531 303.289062 256.566406 303.683594 256.65625 C 304.082031 256.75 304.414062 256.886719 304.679688 257.058594 C 305.023438 257.289062 305.261719 257.570312 305.398438 257.898438 C 305.542969 258.222656 305.609375 258.820312 305.609375 259.691406 L 305.609375 263.054688 C 305.609375 263.734375 305.632812 264.261719 305.683594 264.621094 C 305.730469 264.976562 305.808594 265.273438 305.921875 265.503906 Z M 303.046875 261.296875 C 302.417969 261.476562 301.953125 261.695312 301.664062 261.953125 C 301.371094 262.214844 301.230469 262.539062 301.230469 262.933594 C 301.230469 263.210938 301.300781 263.429688 301.445312 263.59375 C 301.585938 263.761719 301.78125 263.84375 302.023438 263.84375 C 302.378906 263.84375 302.640625 263.726562 302.800781 263.476562 C 302.960938 263.238281 303.042969 262.832031 303.042969 262.261719 L 303.042969 261.296875 Z M 293.527344 265.503906 L 291.605469 256.765625 L 294.058594 256.765625 L 294.914062 262.703125 L 295.765625 256.765625 L 298.203125 256.765625 L 296.265625 265.503906 Z M 284.410156 261.140625 C 284.410156 259.441406 284.65625 258.246094 285.144531 257.5625 C 285.632812 256.882812 286.472656 256.535156 287.660156 256.535156 C 288.851562 256.535156 289.6875 256.875 290.183594 257.550781 C 290.671875 258.234375 290.917969 259.429688 290.917969 261.140625 C 290.917969 262.839844 290.671875 264.035156 290.183594 264.714844 C 289.691406 265.398438 288.851562 265.738281 287.660156 265.738281 C 286.460938 265.738281 285.621094 265.402344 285.140625 264.722656 C 284.648438 264.042969 284.410156 262.847656 284.410156 261.140625 M 286.886719 261.140625 C 286.886719 262.367188 286.941406 263.136719 287.050781 263.445312 C 287.15625 263.757812 287.359375 263.910156 287.660156 263.910156 C 287.960938 263.910156 288.164062 263.761719 288.269531 263.460938 C 288.378906 263.164062 288.433594 262.386719 288.433594 261.132812 C 288.433594 259.882812 288.378906 259.105469 288.269531 258.804688 C 288.164062 258.507812 287.960938 258.359375 287.660156 258.359375 C 287.367188 258.359375 287.160156 258.515625 287.050781 258.832031 C 286.941406 259.140625 286.886719 259.914062 286.886719 261.140625 M 276.644531 265.503906 L 276.644531 256.765625 L 278.933594 256.765625 L 278.933594 257.804688 C 279.203125 257.390625 279.507812 257.085938 279.855469 256.886719 C 280.195312 256.691406 280.601562 256.59375 281.058594 256.59375 C 281.734375 256.59375 282.230469 256.820312 282.539062 257.269531 C 282.847656 257.71875 283.011719 258.433594 283.011719 259.410156 L 283.011719 265.503906 L 280.585938 265.503906 L 280.585938 260.101562 C 280.585938 259.402344 280.539062 258.96875 280.449219 258.796875 C 280.359375 258.621094 280.195312 258.539062 279.964844 258.539062 C 279.691406 258.539062 279.480469 258.667969 279.324219 258.933594 C 279.171875 259.195312 279.09375 259.5625 279.09375 260.039062 L 279.09375 265.496094 L 276.644531 265.496094 Z M 268.632812 265.503906 L 268.632812 256.765625 L 270.925781 256.765625 L 270.925781 257.804688 C 271.191406 257.390625 271.496094 257.085938 271.84375 256.886719 C 272.183594 256.691406 272.582031 256.59375 273.046875 256.59375 C 273.722656 256.59375 274.210938 256.820312 274.527344 257.269531 C 274.84375 257.71875 275 258.433594 275 259.410156 L 275 265.503906 L 272.574219 265.503906 L 272.574219 260.101562 C 272.574219 259.402344 272.527344 258.96875 272.4375 258.796875 C 272.347656 258.621094 272.183594 258.539062 271.949219 258.539062 C 271.675781 258.539062 271.464844 258.667969 271.308594 258.933594 C 271.15625 259.195312 271.082031 259.5625 271.082031 260.039062 L 271.082031 265.496094 L 268.632812 265.496094 Z M 264.125 253.875 L 266.847656 253.875 L 266.847656 265.503906 L 264.125 265.503906 Z M 252.527344 262.734375 L 254.714844 262.738281 C 254.738281 263.195312 254.828125 263.519531 254.976562 263.730469 C 255.128906 263.941406 255.355469 264.042969 255.660156 264.042969 C 255.898438 264.042969 256.101562 263.972656 256.253906 263.824219 C 256.410156 263.683594 256.488281 263.5 256.488281 263.269531 C 256.488281 263.074219 256.4375 262.910156 256.324219 262.78125 C 256.21875 262.65625 255.980469 262.503906 255.605469 262.324219 C 255.527344 262.28125 255.402344 262.226562 255.226562 262.140625 C 254.34375 261.730469 253.730469 261.347656 253.378906 260.992188 C 253.132812 260.75 252.941406 260.46875 252.8125 260.148438 C 252.679688 259.828125 252.617188 259.488281 252.617188 259.136719 C 252.617188 258.339844 252.886719 257.703125 253.429688 257.234375 C 253.972656 256.761719 254.703125 256.523438 255.628906 256.523438 C 256.582031 256.523438 257.324219 256.75 257.839844 257.210938 C 258.351562 257.667969 258.609375 258.316406 258.609375 259.167969 L 258.609375 259.324219 L 256.472656 259.320312 C 256.460938 258.878906 256.394531 258.570312 256.269531 258.382812 C 256.148438 258.191406 255.949219 258.101562 255.667969 258.101562 C 255.425781 258.101562 255.226562 258.171875 255.082031 258.300781 C 254.933594 258.433594 254.859375 258.605469 254.859375 258.828125 C 254.859375 259.210938 255.226562 259.566406 255.957031 259.886719 C 256.058594 259.933594 256.136719 259.964844 256.195312 259.992188 C 257.1875 260.441406 257.859375 260.871094 258.195312 261.296875 C 258.539062 261.722656 258.707031 262.273438 258.707031 262.953125 C 258.707031 263.835938 258.4375 264.515625 257.890625 265 C 257.34375 265.480469 256.566406 265.722656 255.558594 265.722656 C 254.601562 265.722656 253.855469 265.480469 253.328125 264.992188 C 252.796875 264.5 252.527344 263.820312 252.527344 262.9375 Z M 248.933594 253.875 L 251.304688 253.875 L 251.304688 256.089844 C 251.304688 256.875 251.109375 257.484375 250.714844 257.914062 C 250.320312 258.34375 249.726562 258.601562 248.941406 258.683594 L 248.941406 257.816406 C 249.371094 257.730469 249.679688 257.574219 249.878906 257.335938 C 250.078125 257.105469 250.183594 256.769531 250.195312 256.335938 L 248.941406 256.335938 L 248.941406 253.875 Z M 247.648438 265.472656 C 247.351562 265.523438 247.089844 265.566406 246.863281 265.597656 C 246.644531 265.628906 246.457031 265.640625 246.304688 265.640625 C 245.820312 265.640625 245.40625 265.558594 245.0625 265.402344 C 244.722656 265.246094 244.476562 265.027344 244.3125 264.726562 C 244.207031 264.527344 244.128906 264.277344 244.089844 263.972656 C 244.042969 263.667969 244.027344 263.199219 244.027344 262.578125 L 244.027344 258.566406 L 243.082031 258.566406 L 243.082031 256.761719 L 244.027344 256.761719 L 244.027344 254.34375 L 246.488281 254.34375 L 246.488281 256.761719 L 247.648438 256.761719 L 247.648438 258.566406 L 246.480469 258.566406 L 246.480469 262.128906 C 246.480469 262.890625 246.535156 263.359375 246.648438 263.535156 C 246.761719 263.714844 246.976562 263.804688 247.289062 263.804688 C 247.347656 263.804688 247.4375 263.796875 247.5625 263.78125 C 247.59375 263.777344 247.621094 263.777344 247.648438 263.777344 Z M 238.324219 259.953125 L 239.96875 259.953125 L 239.96875 259.90625 C 239.988281 259.6875 240 259.53125 240 259.441406 C 240 259.015625 239.929688 258.695312 239.789062 258.496094 C 239.648438 258.292969 239.433594 258.1875 239.144531 258.1875 C 238.847656 258.1875 238.632812 258.285156 238.503906 258.484375 C 238.371094 258.683594 238.3125 259.011719 238.3125 259.472656 C 238.3125 259.597656 238.3125 259.691406 238.3125 259.765625 C 238.3125 259.832031 238.316406 259.902344 238.324219 259.953125 M 239.90625 262.441406 L 242.195312 262.441406 L 242.195312 262.660156 C 242.195312 263.683594 241.925781 264.453125 241.398438 264.96875 C 240.859375 265.480469 240.0625 265.738281 239.007812 265.738281 C 238.46875 265.738281 237.988281 265.664062 237.554688 265.511719 C 237.125 265.359375 236.785156 265.152344 236.542969 264.882812 C 236.269531 264.578125 236.074219 264.171875 235.960938 263.660156 C 235.84375 263.152344 235.785156 262.339844 235.785156 261.222656 C 235.785156 259.992188 235.84375 259.132812 235.964844 258.644531 C 236.085938 258.15625 236.285156 257.75 236.574219 257.4375 C 236.851562 257.136719 237.203125 256.914062 237.628906 256.761719 C 238.054688 256.609375 238.550781 256.535156 239.117188 256.535156 C 239.695312 256.535156 240.1875 256.621094 240.601562 256.78125 C 241.023438 256.945312 241.359375 257.191406 241.628906 257.511719 C 241.847656 257.785156 242.007812 258.109375 242.105469 258.484375 C 242.199219 258.863281 242.246094 259.507812 242.246094 260.414062 L 242.246094 261.464844 L 238.269531 261.464844 C 238.265625 261.492188 238.265625 261.523438 238.265625 261.5625 C 238.246094 261.929688 238.234375 262.1875 238.234375 262.335938 C 238.234375 262.949219 238.300781 263.375 238.433594 263.613281 C 238.566406 263.855469 238.789062 263.972656 239.105469 263.972656 C 239.382812 263.972656 239.59375 263.878906 239.730469 263.695312 C 239.875 263.511719 239.941406 263.230469 239.941406 262.859375 C 239.941406 262.785156 239.9375 262.671875 239.921875 262.507812 C 239.910156 262.488281 239.90625 262.460938 239.90625 262.441406 M 234.917969 265.503906 L 228.921875 265.503906 L 228.921875 253.875 L 231.648438 253.875 L 231.648438 263.160156 L 234.917969 263.160156 Z M 234.917969 265.503906 " fill-opacity="1" fill-rule="nonzero"/></g><path fill="#b3c135" d="M 173.449219 239.460938 L 173.449219 235.785156 C 173.449219 233.265625 171.40625 231.226562 168.882812 231.226562 L 126.949219 231.226562 C 124.425781 231.226562 122.382812 233.265625 122.382812 235.785156 L 122.382812 239.460938 C 122.382812 241.976562 124.425781 244.019531 126.949219 244.019531 L 168.878906 244.019531 C 171.40625 244.019531 173.449219 241.976562 173.449219 239.460938 " fill-opacity="1" fill-rule="nonzero"/><path fill="#b3c135" d="M 173.449219 218.972656 L 173.449219 215.296875 C 173.449219 212.777344 171.40625 210.738281 168.882812 210.738281 L 126.949219 210.738281 C 124.425781 210.738281 122.382812 212.777344 122.382812 215.296875 L 122.382812 218.972656 C 122.382812 221.488281 124.425781 223.527344 126.949219 223.527344 L 168.878906 223.527344 C 171.40625 223.535156 173.449219 221.488281 173.449219 218.972656 " fill-opacity="1" fill-rule="nonzero"/><path fill="#b3c135" d="M 173.449219 198.484375 L 173.449219 194.808594 C 173.449219 192.289062 171.40625 190.25 168.882812 190.25 L 126.949219 190.25 C 124.425781 190.25 122.382812 192.289062 122.382812 194.808594 L 122.382812 198.484375 C 122.382812 201 124.425781 203.039062 126.949219 203.039062 L 168.878906 203.039062 C 171.40625 203.039062 173.449219 201 173.449219 198.484375 " fill-opacity="1" fill-rule="nonzero"/></svg>